<svg width="250" height="109" viewBox="0 0 250 109" fill="none" xmlns="http://www.w3.org/2000/svg">
<g clip-path="url(#clip0_1_2)">
<rect width="250" height="109" fill="white"/>
<line y1="2.5" x2="170" y2="2.5" stroke="#3038D9" stroke-width="5"/>
<line x1="119" y1="106.5" x2="253" y2="106.5" stroke="#3038D9" stroke-width="5"/>
<g filter="url(#filter0_d_1_2)">
<path d="M38.592 21.8C48.384 21.8 56.128 24.264 61.824 29.192C67.52 34.056 70.368 41.032 70.368 50.12H50.112C50.112 46.28 49.088 43.24 47.04 41C45.056 38.76 42.208 37.64 38.496 37.64C34.208 37.64 31.04 38.984 28.992 41.672C27.008 44.36 26.016 48.104 26.016 52.904V59.048C26.016 63.784 27.008 67.528 28.992 70.28C31.04 72.968 34.144 74.312 38.304 74.312C42.4 74.312 45.504 73.256 47.616 71.144C49.728 69.032 50.784 66.056 50.784 62.216H70.368C70.368 71.24 67.584 78.152 62.016 82.952C56.512 87.752 48.704 90.152 38.592 90.152C27.328 90.152 18.784 87.272 12.96 81.512C7.2 75.752 4.32 67.24 4.32 55.976C4.32 44.712 7.2 36.2 12.96 30.44C18.784 24.68 27.328 21.8 38.592 21.8ZM106.687 37.16C115.583 37.16 122.559 39.432 127.615 43.976C132.735 48.456 135.295 55.016 135.295 63.656C135.295 72.296 132.735 78.888 127.615 83.432C122.559 87.912 115.583 90.152 106.687 90.152C97.7908 90.152 90.8148 87.912 85.7588 83.432C80.7028 78.952 78.1748 72.36 78.1748 63.656C78.1748 54.952 80.7028 48.36 85.7588 43.88C90.8148 39.4 97.7908 37.16 106.687 37.16ZM106.687 50.12C100.415 50.12 97.2788 53.736 97.2788 60.968V66.44C97.2788 73.608 100.415 77.192 106.687 77.192C113.023 77.192 116.191 73.608 116.191 66.44V60.968C116.191 53.736 113.023 50.12 106.687 50.12ZM181.374 89L179.742 81.8C176.03 87.368 170.654 90.152 163.614 90.152C156.766 90.152 151.486 87.912 147.774 83.432C144.062 78.952 142.206 72.328 142.206 63.56C142.206 54.856 144.062 48.296 147.774 43.88C151.486 39.4 156.766 37.16 163.614 37.16C169.438 37.16 174.174 39.112 177.822 43.016V19.4H196.926V89H181.374ZM169.566 51.272C164.062 51.272 161.31 54.568 161.31 61.16V66.248C161.31 72.776 164.062 76.04 169.566 76.04C172.382 76.04 174.494 75.048 175.902 73.064C177.31 71.08 178.014 68.488 178.014 65.288V62.12C178.014 58.92 177.31 56.328 175.902 54.344C174.494 52.296 172.382 51.272 169.566 51.272Z" fill="#566D8C"/>
<path d="M209.213 32.36V19.4H228.317V32.36H209.213ZM209.213 89V38.312H228.317V89H209.213Z" fill="#A7BDD9"/>
</g>
</g>
<defs>
<filter id="filter0_d_1_2" x="4.32001" y="19.4" width="229.997" height="70.752" filterUnits="userSpaceOnUse" color-interpolation-filters="sRGB">
<feFlood flood-opacity="0" result="BackgroundImageFix"/>
<feColorMatrix in="SourceAlpha" type="matrix" values="0 0 0 0 0 0 0 0 0 0 0 0 0 0 0 0 0 0 127 0" result="hardAlpha"/>
<feOffset dx="6"/>
<feComposite in2="hardAlpha" operator="out"/>
<feColorMatrix type="matrix" values="0 0 0 0 0.188235 0 0 0 0 0.219608 0 0 0 0 0.85098 0 0 0 1 0"/>
<feBlend mode="normal" in2="BackgroundImageFix" result="effect1_dropShadow_1_2"/>
<feBlend mode="normal" in="SourceGraphic" in2="effect1_dropShadow_1_2" result="shape"/>
</filter>
<clipPath id="clip0_1_2">
<rect width="250" height="109" fill="white"/>
</clipPath>
</defs>
</svg>
