<svg width="1109" height="1024" viewBox="0 0 1109 1024" fill="none" xmlns="http://www.w3.org/2000/svg">
<rect width="1109" height="1024" fill=""/>
<path d="M566.821 744.843L567.562 642.246L859.924 490.758L854.736 794.104L564.598 953L566.08 784.474L662.422 734.472V787.808L778.774 730.398V641.135L566.821 744.843Z" fill="#B6142F"/>
<path d="M256.302 794.475V675.581L410.079 757.066V621.875L256.302 540.39V477.795L325.224 440.386L484.189 531.871L594.241 470.017L439.723 381.495L554.222 313.714L851.772 479.647L554.222 633.727L550.517 953L256.302 794.475Z" fill="#C52232"/>
<path d="M552.74 632.246L258.155 478.906V539.279L411.932 620.764V760.029L258.155 678.646V793.364L548.664 950.037L552.74 632.246Z" fill="#B6142F"/>
<path d="M430.506 372.976L244 150.551H289.207C278.461 177.747 331.318 235.401 407.087 225.684C513.907 211.985 554.138 70 554.138 70C554.138 70 615.902 235.868 720.655 225.684C825.407 215.5 825.407 150.551 825.407 150.551H864L683.92 372.976L554.138 300.522L430.506 372.976Z" fill="#FFCC00"/>
</svg>